<svg width="360" height="65" viewBox="0 0 360 65" fill="none" xmlns="http://www.w3.org/2000/svg">
<path fill-rule="evenodd" clip-rule="evenodd" d="M142.571 0.0738789C142.464 0.13597 142.849 0.238033 143.635 0.356488C146.389 0.771476 149.846 1.78907 152.1 2.84843C157.26 5.27312 160.418 8.89955 161.357 13.4779C161.779 15.5383 161.925 21.7087 161.679 27.1595C161.262 36.4446 160.169 44.983 157.519 59.6765C157.195 61.4739 156.93 63.0297 156.93 63.1339C156.93 63.3106 157.859 63.3206 170.825 63.2837C183.175 63.2484 184.864 63.2227 186.016 63.053C191.511 62.2433 195.491 60.904 200.797 58.0789C202.804 57.0103 205.471 55.4541 205.296 55.4541C205.224 55.4541 204.248 55.6294 203.128 55.8438C200.676 56.3128 197.164 56.8282 194.555 57.1019C191.801 57.3907 184.941 57.3925 182.871 57.1049C177.477 56.3554 173.819 54.5348 172.616 52.0006C172.314 51.3635 172.31 51.3079 172.337 47.3137C172.352 45.0906 172.463 37.6633 172.583 30.8086C172.842 16.0546 172.82 14.6138 172.326 13.1806C171.535 10.8852 169.64 8.30166 167.464 6.55087C163.287 3.18988 158.131 1.18949 151.253 0.261836C149.708 0.0535562 142.86 -0.0947659 142.571 0.0738789ZM300.699 11.0313C300.807 11.1191 301.936 11.8078 303.207 12.5619C306.045 14.2463 307.021 14.9189 308.285 16.0619C311.199 18.6959 312.909 21.781 315.092 28.3384C316.978 34.0049 320.633 47.1317 320.633 48.2402C320.633 48.4703 320.223 48.3189 316.111 46.5704C300.159 39.7867 290.999 35.0498 281.753 28.8033C275.641 24.6733 269.419 19.5412 264.207 14.3298C263.418 13.5415 262.648 12.8735 262.494 12.8453C262.153 12.7825 255.605 12.071 253.237 11.8393C250.775 11.5983 247.537 11.3513 245.778 11.2702L244.26 11.2002L245.281 11.6851C251.459 14.6184 259.461 23.3195 262.973 30.9208C263.587 32.2501 263.902 33.233 264.451 35.5314C265.841 41.3542 266.513 45.5092 266.774 49.901C267.054 54.6012 266.525 58.5414 264.986 63.2206C264.738 63.976 264.556 64.6125 264.582 64.635C264.674 64.7127 267.377 62.3394 268.27 61.3968C270.264 59.2938 272.221 56.3816 273.245 53.9944C274.722 50.55 275.411 45.9796 275.096 41.7278C274.959 39.8832 274.694 37.7635 274.469 36.7046L274.385 36.3131L274.835 36.6033C280.232 40.0878 287.698 43.9993 296.936 48.1829C303.932 51.3512 314.658 55.9887 317.22 56.9527C327.776 60.925 340.27 63.3981 352.714 63.9785C356.223 64.1421 359.235 64.219 359.145 64.1427C359.103 64.1065 358.366 63.8367 357.508 63.5429C350.041 60.987 343.386 57.7479 339.743 54.8966C338.654 54.044 337.307 52.5414 336.621 51.412C336.339 50.9488 335.621 49.433 335.025 48.0436C330.308 37.0484 324.392 24.2091 323.195 22.3689C321.023 19.0295 316.974 16.4172 310.11 13.9261C307.057 12.818 300.361 10.7586 300.699 11.0313ZM196.681 11.9692C196.58 12.0033 197.619 12.3458 198.991 12.7301C208.835 15.4873 213.424 18.5854 214.888 23.4606C215.251 24.6696 215.545 26.9338 216.47 35.6366C217.501 45.3468 218.143 50.8292 218.391 52.058C218.739 53.7815 219.328 55.0781 220.37 56.4156C223.867 60.9058 231.475 63.5186 243.732 64.4384C245.521 64.5726 253.143 64.7259 253.035 64.6256C252.996 64.5896 251.749 64.2112 250.263 63.7847C240.281 60.9197 235.269 58.27 232.981 54.6483C231.656 52.5512 231.583 52.176 229.409 36.1419C228.454 29.099 227.895 25.3099 227.62 24.0156C227.055 21.3613 225.699 19.2427 223.379 17.3889C219.619 14.3858 213.894 12.6271 205.843 12.0023C204.341 11.8858 197.007 11.8593 196.681 11.9692ZM37.448 13.1233C41.2275 14.6765 45.1172 17.9524 46.6946 20.9111C48.2022 23.7391 47.9186 27.448 45.9516 30.6292C45.1519 31.9221 44.4748 32.7018 42.5645 34.5287C31.4873 45.1225 17.4233 55.0878 2.87526 62.6517C1.64049 63.2937 0.713059 63.8346 0.814186 63.8538C1.09842 63.9077 18.2712 61.6699 29.9275 60.06C40.5121 58.5981 42.2529 58.441 47.9481 58.4345C52.7228 58.4291 53.6435 58.4934 56.1993 59.01C59.5665 59.6905 62.4732 61.1023 64.0245 62.8107L64.5825 63.4251L69.2031 63.4279C71.7445 63.4293 77.1138 63.462 81.1351 63.5004C86.0322 63.5471 88.4298 63.5328 88.3962 63.4569C88.3684 63.3946 87.7782 63.0172 87.0844 62.6183C80.2329 58.6794 75.2203 53.3881 72.2668 46.9769C69.9621 41.9739 66.2868 33.4157 63.7081 27.0472C61.6915 22.0668 61.4832 21.6238 60.6719 20.5924C57.6652 16.769 51.5641 14.0187 43.7235 12.9522C42.9296 12.8443 41.1925 12.751 39.3669 12.7184L36.3304 12.6641L37.448 13.1233ZM132.242 15.8293C120.291 16.8065 108.098 22.3439 100.99 30.0226C95.8124 35.6159 93.5174 42.0926 94.4272 48.5443C95.03 52.8202 96.9955 57.1381 100.341 61.5369L101.68 63.2971L102.538 63.388C103.01 63.4378 106.485 63.4795 110.261 63.4804C115.995 63.4819 117.496 63.4485 119.37 63.278C124.469 62.8144 129.099 61.9641 133.526 60.6787C135.952 59.974 139.577 58.7076 140.889 58.1058L141.549 57.8031L141.044 57.8703C138.597 58.1962 137.29 58.2852 134.147 58.3399C128.56 58.4371 124.406 58.0203 119.849 56.9054C111.178 54.7836 105.918 50.7512 104.915 45.4552C104.762 44.6475 104.766 41.7321 104.92 41.6012C104.96 41.5676 109.029 41.5339 113.963 41.5263C121.627 41.5142 123.195 41.5396 124.717 41.7003C128.184 42.0661 131.425 42.942 134.711 44.4009L136.321 45.1159L137.03 44.4184C140.172 41.327 142.88 38.1319 144.083 36.0983L144.673 35.1004L143.903 35.1708C137.619 35.7461 125.356 35.9934 113.366 35.7866C109.919 35.7272 107.078 35.6614 107.053 35.6404C106.96 35.5616 107.85 33.8963 108.5 32.9323C109.615 31.2778 110.729 30.1115 112.495 28.7514C117.384 24.9837 124.152 23.5116 131.12 24.7003C133.71 25.1421 137.344 26.3358 139.748 27.5342C140.202 27.7604 140.63 27.9454 140.698 27.9454C140.893 27.9454 140.846 25.102 140.631 23.9033C140.104 20.9676 138.324 18.4435 135.292 16.3338C134.293 15.6384 134.387 15.6539 132.242 15.8293ZM52.3059 34.7965C53.2933 36.464 54.1672 38.6525 55.4887 42.7664C56.6497 46.3805 57.5099 48.8247 57.9732 49.8255L58.3043 50.5406L57.9156 50.4744C56.6687 50.2623 54.3188 50.1561 52.2387 50.2178C47.4545 50.3596 42.5137 50.9215 33.7727 52.318C32.2207 52.566 30.929 52.7502 30.9023 52.7277C30.8758 52.705 31.5685 52.2165 32.4418 51.6419C35.3275 49.7436 37.8745 47.8104 41.0941 45.0749C45.415 41.4035 48.0181 38.7687 50.6125 35.4401C51.2261 34.6528 51.7533 34.0085 51.7838 34.0085C51.8144 34.0085 52.0492 34.3631 52.3059 34.7965Z" fill="white"/>
</svg>
